<?xml version="1.0" standalone="no"?>
<!DOCTYPE svg PUBLIC "-//W3C//DTD SVG 20010904//EN"
 "http://www.w3.org/TR/2001/REC-SVG-20010904/DTD/svg10.dtd">
<svg version="1.0" xmlns="http://www.w3.org/2000/svg"
 width="1024.000000pt" height="1024.000000pt" viewBox="0 0 1024.000000 1024.000000"
 preserveAspectRatio="xMidYMid meet">
<metadata>
Created by potrace 1.11, written by Peter Selinger 2001-2013
</metadata>
<g transform="translate(0.000000,1024.000000) scale(0.100000,-0.100000)"
fill="#000000" stroke="none">
<path d="M711 10225 c-278 -61 -497 -227 -618 -470 -44 -87 -63 -149 -83 -265
-12 -66 -9 -8741 3 -8783 49 -181 117 -312 215 -418 122 -132 268 -218 443
-264 l94 -24 4345 0 c2920 0 4361 3 4395 10 28 6 61 12 74 15 48 10 177 64
240 101 87 51 207 166 268 256 46 68 107 197 119 251 33 141 32 94 32 4496 0
4756 5 4385 -59 4550 -103 267 -322 459 -609 534 l-95 25 -4350 0 c-3667 -1
-4360 -3 -4414 -14z"/>
</g>
</svg>
