<?xml version="1.0" encoding="UTF-8" standalone="no"?>
<!-- Created with Inkscape (http://www.inkscape.org/) -->

<svg
   xmlns:dc="http://purl.org/dc/elements/1.1/"
   xmlns:cc="http://creativecommons.org/ns#"
   xmlns:rdf="http://www.w3.org/1999/02/22-rdf-syntax-ns#"
   xmlns:svg="http://www.w3.org/2000/svg"
   xmlns="http://www.w3.org/2000/svg"
   xmlns:sodipodi="http://sodipodi.sourceforge.net/DTD/sodipodi-0.dtd"
   xmlns:inkscape="http://www.inkscape.org/namespaces/inkscape"
   width="210mm"
   height="297mm"
   viewBox="0 0 210 297"
   version="1.1"
   id="svg8"
   inkscape:version="0.92.3 (2405546, 2018-03-11)"
   sodipodi:docname="tomaco.svg">
  <defs
     id="defs2" />
  <sodipodi:namedview
     id="base"
     pagecolor="#ffffff"
     bordercolor="#666666"
     borderopacity="1.0"
     inkscape:pageopacity="0.0"
     inkscape:pageshadow="2"
     inkscape:zoom="0.5"
     inkscape:cx="-1800.7914"
     inkscape:cy="127.904"
     inkscape:document-units="mm"
     inkscape:current-layer="layer1"
     showgrid="false"
     inkscape:window-width="1920"
     inkscape:window-height="1057"
     inkscape:window-x="-8"
     inkscape:window-y="-8"
     inkscape:window-maximized="1" />
  <metadata
     id="metadata5">
    <rdf:RDF>
      <cc:Work
         rdf:about="">
        <dc:format>image/svg+xml</dc:format>
        <dc:type
           rdf:resource="http://purl.org/dc/dcmitype/StillImage" />
        <dc:title></dc:title>
      </cc:Work>
    </rdf:RDF>
  </metadata>
  <g
     inkscape:label="Camada 1"
     inkscape:groupmode="layer"
     id="layer1">
    <rect
       style="fill:#ee6e73;fill-opacity:1;stroke:none;stroke-width:0.11444613"
       id="rect867"
       width="37.930717"
       height="52.481731"
       x="-605.06781"
       y="240.56564" />
    <rect
       style="fill:#64b5f6;fill-opacity:1;stroke:none;stroke-width:0.26458332"
       id="rect869"
       width="44.601189"
       height="30.238094"
       x="-601.04858"
       y="163.43002" />
    <rect
       style="fill:#803b3d;fill-opacity:1;stroke:none;stroke-width:0.26458332"
       id="rect1161"
       width="58.208332"
       height="60.325001"
       x="-615.5014"
       y="329.03638" />
    <path
       inkscape:connector-curvature="0"
       id="path35-2-3-9-5-3-7"
       d="m -598.65108,133.15741 c -8.83585,-1.9961 -15.90619,-8.71063 -19.07983,-18.11964 -1.00919,-2.992 -1.54917,-6.57816 -1.94024,-12.88569 -0.43731,-7.053324 -0.0223,-10.402184 1.8526,-14.948844 1.56453,-3.79404 4.68711,-7.43196 7.94811,-9.48721 17.68226,-2.0922 25.06539,-1.16496 33.76516,-1.47296 0.90839,-0.0281 15.7868,0.77123 16.65991,1.28017 5.54246,3.23067 9.14736,9.04914 10.2105,16.48019 0.221,1.544706 -0.10341,5.651496 -0.29772,9.443054 -0.17408,3.39694 -0.18777,6.48492 -0.52997,8.16943 -2.49103,12.26236 -12.08094,21.29099 -23.33876,21.97275 -2.34589,0.14206 -3.99301,-0.0353 -9.19804,-0.99037 -1.54765,-0.284 -2.12923,-0.24452 -5.72144,0.38824 -4.63768,0.81693 -7.27721,0.86062 -10.33028,0.17088 z"
       style="fill:#ee6e73;fill-opacity:1;stroke-width:0.26458332"
       sodipodi:nodetypes="ccscccccccccsc" />
    <path
       inkscape:connector-curvature="0"
       id="path31-1-4-6-9"
       d="m -610.54986,78.396116 c -3.41109,0.26176 3.17772,-2.28599 4.52878,-2.49104 -0.10092,-0.3369 -9.29307,0.95307 -9.56133,0.51694 -0.26864,-0.43675 4.19521,-1.90415 7.514,-1.9662 3.1756,-0.13424 6.06913,-0.25976 9.3967,0.22262 2.21103,0.32051 3.721,0.66887 4.12935,0.61057 0.69507,-0.0992 1.00818,-0.13747 0.58774,-0.4823 -0.3787,-0.33015 -1.88908,-0.5263 -1.97463,-1.04701 -0.0519,-0.31568 3.07052,-0.34402 6.0567,-0.004 2.85371,0.22025 6.78837,0.22265 10.03154,0.0598 2.90165,-0.33722 6.18132,-0.44611 6.18132,-0.13532 0,0.12612 -0.63756,0.69754 -1.37596,1.00441 -0.7384,0.30686 -0.89416,0.36111 -0.81572,0.48804 0.0794,0.12845 0.52215,0.10276 1.8894,-0.0893 7.32254,-1.02889 15.0417,-0.73486 18.91574,0.12888 3.76672,1.15372 1.60822,1.20936 -4.32153,0.74961 -2.19604,-0.10846 -3.02944,-0.17555 -4.4241,0.26404 3.84014,0.37124 6.33873,1.52809 6.00036,1.83038 -0.21984,0.1964 -2.19091,0.35589 -5.27916,-0.0296 -3.59686,-0.4589 -7.90207,-0.77897 -12.73322,-0.9878 -1.3697,-0.0592 2.62929,3.73249 2.08493,10.70636 -0.89187,-3.5957 -9.41911,-10.93188 -10.31592,-10.9576 -1.3295,-0.0381 -8.36829,7.79105 -8.87242,7.73697 0.27154,-1.589 0.32128,-1.78254 0.61039,-3.13809 -1.04152,0.80646 -4.67513,3.5405 -5.82664,5.99504 -1.81751,-5.11107 5.37238,-10.53313 5.37238,-10.53313 0,0 -9.29517,0.32325 -17.7987,1.54739 z"
       style="fill:#a2a64d;stroke-width:0.26458332"
       sodipodi:nodetypes="ccsccccsccsccccccscscscccccc" />
    <rect
       style="fill:#ffffff;fill-opacity:1;stroke:none;stroke-width:0.18181819"
       id="rect1159-75-4"
       width="2"
       height="8"
       x="-595.86121"
       y="97.863815" />
    <path
       style="fill:#803b3d;fill-opacity:1;stroke:none;stroke-width:0.04838879"
       d="m -619.26959,107.16582 h 69.57922 c -0.0126,0.56462 -0.0458,1.12925 -0.0811,1.69387 l -69.29969,-0.001 c -0.0704,-0.55618 -0.15057,-1.1042 -0.19843,-1.69287 z"
       id="rect1161-8-3-9"
       inkscape:connector-curvature="0"
       sodipodi:nodetypes="ccccc" />
    <rect
       style="fill:#ffffff;fill-opacity:1;stroke:none;stroke-width:0.0909091"
       id="rect1159-2-56-8"
       width="1"
       height="4"
       x="-599.51367"
       y="101.86382" />
    <rect
       style="fill:#ffffff;fill-opacity:1;stroke:none;stroke-width:0.0909091"
       id="rect1159-2-8-2-1"
       width="1"
       height="4"
       x="-603.6662"
       y="101.86382" />
    <rect
       style="fill:#ffffff;fill-opacity:1;stroke:none;stroke-width:0.0909091"
       id="rect1159-2-5-91-9"
       width="1"
       height="4"
       x="-607.81873"
       y="101.86382" />
    <rect
       style="fill:#ffffff;fill-opacity:1;stroke:none;stroke-width:0.18181819"
       id="rect1159-0-2-3"
       width="2"
       height="8"
       x="-616.62372"
       y="97.863815" />
    <rect
       style="fill:#ffffff;fill-opacity:1;stroke:none;stroke-width:0.18181819"
       id="rect1159-4-70-8"
       width="2"
       height="8"
       x="-575.09863"
       y="97.863815" />
    <rect
       style="fill:#ffffff;fill-opacity:1;stroke:none;stroke-width:0.0909091"
       id="rect1159-2-7-9-4"
       width="1"
       height="4"
       x="-578.75116"
       y="101.86382" />
    <rect
       style="fill:#ffffff;fill-opacity:1;stroke:none;stroke-width:0.0909091"
       id="rect1159-2-8-6-3-5"
       width="1"
       height="4"
       x="-582.90369"
       y="101.86382" />
    <rect
       style="fill:#ffffff;fill-opacity:1;stroke:none;stroke-width:0.0909091"
       id="rect1159-2-5-2-60-4"
       width="1"
       height="4"
       x="-587.05615"
       y="101.86382" />
    <rect
       style="fill:#ffffff;fill-opacity:1;stroke:none;stroke-width:0.18181819"
       id="rect1159-7-6-7"
       width="2"
       height="8"
       x="-554.33618"
       y="97.863815" />
    <rect
       style="fill:#ffffff;fill-opacity:1;stroke:none;stroke-width:0.0909091"
       id="rect1159-2-2-2-5"
       width="1"
       height="4"
       x="-557.98865"
       y="101.86382" />
    <rect
       style="fill:#ffffff;fill-opacity:1;stroke:none;stroke-width:0.0909091"
       id="rect1159-2-8-3-6-2"
       width="1"
       height="4"
       x="-562.14117"
       y="101.86382" />
    <rect
       style="fill:#ffffff;fill-opacity:1;stroke:none;stroke-width:0.0909091"
       id="rect1159-2-5-5-1-7"
       width="1"
       height="4"
       x="-566.29364"
       y="101.86382" />
    <rect
       style="fill:#ffffff;fill-opacity:1;stroke:none;stroke-width:0.0909091"
       id="rect1159-2-5-6-8-0"
       width="1"
       height="4"
       x="-611.97119"
       y="101.86382" />
    <rect
       style="fill:#ffffff;fill-opacity:1;stroke:none;stroke-width:0.0909091"
       id="rect1159-2-5-25-7-3"
       width="1"
       height="4"
       x="-591.20868"
       y="101.86382" />
    <rect
       style="fill:#ffffff;fill-opacity:1;stroke:none;stroke-width:0.0909091"
       id="rect1159-2-5-9-9-2"
       width="1"
       height="4"
       x="-570.44617"
       y="101.86382" />
    <path
       style="fill:#ffffff;fill-opacity:1;stroke:none;stroke-width:0.1337454"
       d="m -584.47998,111.96862 3.0427,6.05198 h -6.08541 z"
       id="rect1349-2-2"
       inkscape:connector-curvature="0"
       sodipodi:nodetypes="cccc" />
    <path
       style="opacity:1;fill:#5d8d4d;fill-opacity:1;stroke:none;stroke-width:0.25;stroke-linecap:butt;stroke-miterlimit:10;stroke-dasharray:none;stroke-dashoffset:0;stroke-opacity:1"
       d="m -584.50225,71.631036 c 0.32364,-0.32975 1.80592,-0.17266 1.87089,0 0.065,0.17266 -0.42253,3.20325 -0.70159,3.3676 -0.27906,0.16435 -1.59086,0.27407 -1.87089,0 -0.28003,-0.27407 0.37795,-3.03785 0.70159,-3.3676 z"
       id="rect984-3"
       inkscape:connector-curvature="0"
       sodipodi:nodetypes="zzzzz" />
    <g
       id="g2819"
       inkscape:export-xdpi="236.4509"
       inkscape:export-ydpi="236.4509">
      <rect
         ry="9.4132042"
         y="168.58601"
         x="-485.69714"
         height="110"
         width="110"
         id="rect2396"
         style="fill:#64b5f6;fill-opacity:1;stroke:none;stroke-width:0.25640398" />
      <g
         id="g2673">
        <path
           inkscape:connector-curvature="0"
           id="path35-2-3-9-5-3-7-99"
           d="m -444.85271,254.2044 c -8.83585,-1.9961 -15.90619,-8.71063 -19.07983,-18.11964 -1.00919,-2.992 -1.54917,-6.57816 -1.94024,-12.88569 -0.43731,-7.05333 -0.0223,-10.40219 1.8526,-14.94885 1.56453,-3.79404 4.68711,-7.43196 7.94811,-9.48721 17.68226,-2.0922 25.06539,-1.16496 33.76516,-1.47296 0.90839,-0.0281 15.7868,0.77123 16.65991,1.28017 5.54246,3.23067 9.14736,9.04914 10.2105,16.48019 0.221,1.54471 -0.10341,5.6515 -0.29772,9.44306 -0.17408,3.39694 -0.18777,6.48492 -0.52997,8.16943 -2.49103,12.26236 -12.08094,21.29099 -23.33876,21.97275 -2.34589,0.14206 -3.99301,-0.0353 -9.19804,-0.99037 -1.54765,-0.284 -2.12923,-0.24452 -5.72144,0.38824 -4.63768,0.81693 -7.27721,0.86062 -10.33028,0.17088 z"
           style="fill:#ee6e73;fill-opacity:1;stroke-width:0.26458332"
           sodipodi:nodetypes="ccscccccccccsc" />
        <path
           inkscape:connector-curvature="0"
           id="path31-1-4-6-9-7"
           d="m -456.75149,199.4431 c -3.41109,0.26176 3.17772,-2.28599 4.52878,-2.49104 -0.10092,-0.3369 -9.29307,0.95307 -9.56133,0.51694 -0.26864,-0.43675 4.19521,-1.90415 7.514,-1.9662 3.1756,-0.13424 6.06913,-0.25976 9.3967,0.22262 2.21103,0.32051 3.721,0.66887 4.12935,0.61057 0.69507,-0.0992 1.00818,-0.13747 0.58774,-0.4823 -0.3787,-0.33015 -1.88908,-0.5263 -1.97463,-1.04701 -0.0519,-0.31568 3.07052,-0.34402 6.0567,-0.004 2.85371,0.22025 6.78837,0.22265 10.03154,0.0598 2.90165,-0.33722 6.18132,-0.44611 6.18132,-0.13532 0,0.12612 -0.63756,0.69754 -1.37596,1.00441 -0.7384,0.30686 -0.89416,0.36111 -0.81572,0.48804 0.0794,0.12845 0.52215,0.10276 1.8894,-0.0893 7.32254,-1.02889 15.0417,-0.73486 18.91574,0.12888 3.76672,1.15372 1.60822,1.20936 -4.32153,0.74961 -2.19604,-0.10846 -3.02944,-0.17555 -4.4241,0.26404 3.84014,0.37124 6.33873,1.52809 6.00036,1.83038 -0.21984,0.1964 -2.19091,0.35589 -5.27916,-0.0296 -3.59686,-0.4589 -7.90207,-0.77897 -12.73322,-0.9878 -1.3697,-0.0592 2.62929,3.73249 2.08493,10.70636 -0.89187,-3.5957 -9.41911,-10.93188 -10.31592,-10.9576 -1.3295,-0.0381 -8.36829,7.79105 -8.87242,7.73697 0.27154,-1.589 0.32128,-1.78254 0.61039,-3.13809 -1.04152,0.80646 -4.67513,3.5405 -5.82664,5.99504 -1.81751,-5.11107 5.37238,-10.53313 5.37238,-10.53313 0,0 -9.29517,0.32325 -17.7987,1.54739 z"
           style="fill:#a2a64d;stroke-width:0.26458332"
           sodipodi:nodetypes="ccsccccsccsccccccscscscccccc" />
        <rect
           style="fill:#ffffff;fill-opacity:1;stroke:none;stroke-width:0.18181819"
           id="rect1159-75-4-4"
           width="2"
           height="8"
           x="-442.06284"
           y="218.91081" />
        <path
           style="fill:#803b3d;fill-opacity:1;stroke:none;stroke-width:0.04838879"
           d="m -465.47122,228.21281 h 69.57922 c -0.0126,0.56462 -0.0458,1.12925 -0.0811,1.69387 l -69.29969,-0.001 c -0.0704,-0.55618 -0.15057,-1.1042 -0.19843,-1.69287 z"
           id="rect1161-8-3-9-61"
           inkscape:connector-curvature="0"
           sodipodi:nodetypes="ccccc" />
        <rect
           style="fill:#ffffff;fill-opacity:1;stroke:none;stroke-width:0.0909091"
           id="rect1159-2-56-8-68"
           width="1"
           height="4"
           x="-445.71533"
           y="222.91081" />
        <rect
           style="fill:#ffffff;fill-opacity:1;stroke:none;stroke-width:0.0909091"
           id="rect1159-2-8-2-1-5"
           width="1"
           height="4"
           x="-449.86786"
           y="222.91081" />
        <rect
           style="fill:#ffffff;fill-opacity:1;stroke:none;stroke-width:0.0909091"
           id="rect1159-2-5-91-9-87"
           width="1"
           height="4"
           x="-454.02036"
           y="222.91081" />
        <rect
           style="fill:#ffffff;fill-opacity:1;stroke:none;stroke-width:0.18181819"
           id="rect1159-0-2-3-6"
           width="2"
           height="8"
           x="-462.82538"
           y="218.91081" />
        <rect
           style="fill:#ffffff;fill-opacity:1;stroke:none;stroke-width:0.18181819"
           id="rect1159-4-70-8-1"
           width="2"
           height="8"
           x="-421.30029"
           y="218.91081" />
        <rect
           style="fill:#ffffff;fill-opacity:1;stroke:none;stroke-width:0.0909091"
           id="rect1159-2-7-9-4-45"
           width="1"
           height="4"
           x="-424.95282"
           y="222.91081" />
        <rect
           style="fill:#ffffff;fill-opacity:1;stroke:none;stroke-width:0.0909091"
           id="rect1159-2-8-6-3-5-9"
           width="1"
           height="4"
           x="-429.10535"
           y="222.91081" />
        <rect
           style="fill:#ffffff;fill-opacity:1;stroke:none;stroke-width:0.0909091"
           id="rect1159-2-5-2-60-4-9"
           width="1"
           height="4"
           x="-433.25781"
           y="222.91081" />
        <rect
           style="fill:#ffffff;fill-opacity:1;stroke:none;stroke-width:0.18181819"
           id="rect1159-7-6-7-0"
           width="2"
           height="8"
           x="-400.53778"
           y="218.91081" />
        <rect
           style="fill:#ffffff;fill-opacity:1;stroke:none;stroke-width:0.0909091"
           id="rect1159-2-2-2-5-8"
           width="1"
           height="4"
           x="-404.19028"
           y="222.91081" />
        <rect
           style="fill:#ffffff;fill-opacity:1;stroke:none;stroke-width:0.0909091"
           id="rect1159-2-8-3-6-2-82"
           width="1"
           height="4"
           x="-408.3428"
           y="222.91081" />
        <rect
           style="fill:#ffffff;fill-opacity:1;stroke:none;stroke-width:0.0909091"
           id="rect1159-2-5-5-1-7-45"
           width="1"
           height="4"
           x="-412.4953"
           y="222.91081" />
        <rect
           style="fill:#ffffff;fill-opacity:1;stroke:none;stroke-width:0.0909091"
           id="rect1159-2-5-6-8-0-3"
           width="1"
           height="4"
           x="-458.17285"
           y="222.91081" />
        <rect
           style="fill:#ffffff;fill-opacity:1;stroke:none;stroke-width:0.0909091"
           id="rect1159-2-5-25-7-3-2"
           width="1"
           height="4"
           x="-437.41034"
           y="222.91081" />
        <rect
           style="fill:#ffffff;fill-opacity:1;stroke:none;stroke-width:0.0909091"
           id="rect1159-2-5-9-9-2-7"
           width="1"
           height="4"
           x="-416.64783"
           y="222.91081" />
        <path
           style="fill:#ffffff;fill-opacity:1;stroke:none;stroke-width:0.1337454"
           d="m -430.68161,233.01561 3.0427,6.05198 h -6.08541 z"
           id="rect1349-2-2-89"
           inkscape:connector-curvature="0"
           sodipodi:nodetypes="cccc" />
        <path
           style="opacity:1;fill:#5d8d4d;fill-opacity:1;stroke:none;stroke-width:0.25;stroke-linecap:butt;stroke-miterlimit:10;stroke-dasharray:none;stroke-dashoffset:0;stroke-opacity:1"
           d="m -430.70388,192.67802 c 0.32364,-0.32975 1.80592,-0.17266 1.87089,0 0.065,0.17266 -0.42253,3.20325 -0.70159,3.3676 -0.27906,0.16435 -1.59086,0.27407 -1.87089,0 -0.28003,-0.27407 0.37795,-3.03785 0.70159,-3.3676 z"
           id="rect984-3-74"
           inkscape:connector-curvature="0"
           sodipodi:nodetypes="zzzzz" />
      </g>
    </g>
    <g
       id="g2844"
       inkscape:export-xdpi="236.4509"
       inkscape:export-ydpi="236.4509">
      <rect
         ry="9.4132042"
         y="290.53033"
         x="-485.16885"
         height="110"
         width="110"
         id="rect2396-7"
         style="fill:#803b3d;fill-opacity:1;stroke:none;stroke-width:0.25640398" />
      <g
         id="g2696">
        <path
           inkscape:connector-curvature="0"
           id="path35-2-3-9-5-3-7-99-1"
           d="m -444.32442,376.14871 c -8.83585,-1.9961 -15.90619,-8.71063 -19.07983,-18.11964 -1.00919,-2.992 -1.54917,-6.57816 -1.94024,-12.88569 -0.43731,-7.05333 -0.0223,-10.40219 1.8526,-14.94885 1.56453,-3.79404 4.68711,-7.43196 7.94811,-9.48721 17.68226,-2.0922 25.06539,-1.16496 33.76516,-1.47296 0.90839,-0.0281 15.7868,0.77123 16.65991,1.28017 5.54246,3.23067 9.14736,9.04914 10.2105,16.48019 0.221,1.54471 -0.10341,5.6515 -0.29772,9.44306 -0.17408,3.39694 -0.18777,6.48492 -0.52997,8.16943 -2.49103,12.26236 -12.08094,21.29099 -23.33876,21.97275 -2.34589,0.14206 -3.99301,-0.0353 -9.19804,-0.99037 -1.54765,-0.284 -2.12923,-0.24452 -5.72144,0.38824 -4.63768,0.81693 -7.27721,0.86062 -10.33028,0.17088 z"
           style="fill:#ee6e73;fill-opacity:1;stroke-width:0.26458332"
           sodipodi:nodetypes="ccscccccccccsc" />
        <path
           inkscape:connector-curvature="0"
           id="path31-1-4-6-9-7-4"
           d="m -456.2232,321.38741 c -3.41109,0.26176 3.17772,-2.28599 4.52878,-2.49104 -0.10092,-0.3369 -9.29307,0.95307 -9.56133,0.51694 -0.26864,-0.43675 4.19521,-1.90415 7.514,-1.9662 3.1756,-0.13424 6.06913,-0.25976 9.3967,0.22262 2.21103,0.32051 3.721,0.66887 4.12935,0.61057 0.69507,-0.0992 1.00818,-0.13747 0.58774,-0.4823 -0.3787,-0.33015 -1.88908,-0.5263 -1.97463,-1.04701 -0.0519,-0.31568 3.07052,-0.34402 6.0567,-0.004 2.85371,0.22025 6.78837,0.22265 10.03154,0.0598 2.90165,-0.33722 6.18132,-0.44611 6.18132,-0.13532 0,0.12612 -0.63756,0.69754 -1.37596,1.00441 -0.7384,0.30686 -0.89416,0.36111 -0.81572,0.48804 0.0794,0.12845 0.52215,0.10276 1.8894,-0.0893 7.32254,-1.02889 15.0417,-0.73486 18.91574,0.12888 3.76672,1.15372 1.60822,1.20936 -4.32153,0.74961 -2.19604,-0.10846 -3.02944,-0.17555 -4.4241,0.26404 3.84014,0.37124 6.33873,1.52809 6.00036,1.83038 -0.21984,0.1964 -2.19091,0.35589 -5.27916,-0.0296 -3.59686,-0.4589 -7.90207,-0.77897 -12.73322,-0.9878 -1.3697,-0.0592 2.62929,3.73249 2.08493,10.70636 -0.89187,-3.5957 -9.41911,-10.93188 -10.31592,-10.9576 -1.3295,-0.0381 -8.36829,7.79105 -8.87242,7.73697 0.27154,-1.589 0.32128,-1.78254 0.61039,-3.13809 -1.04152,0.80646 -4.67513,3.5405 -5.82664,5.99504 -1.81751,-5.11107 5.37238,-10.53313 5.37238,-10.53313 0,0 -9.29517,0.32325 -17.7987,1.54739 z"
           style="fill:#a2a64d;stroke-width:0.26458332"
           sodipodi:nodetypes="ccsccccsccsccccccscscscccccc" />
        <rect
           style="fill:#ffffff;fill-opacity:1;stroke:none;stroke-width:0.18181819"
           id="rect1159-75-4-4-8"
           width="2"
           height="8"
           x="-441.53455"
           y="340.8551" />
        <path
           style="fill:#803b3d;fill-opacity:1;stroke:none;stroke-width:0.04838879"
           d="m -464.94293,350.15712 h 69.57922 c -0.0126,0.56462 -0.0458,1.12925 -0.0811,1.69387 l -69.29969,-0.001 c -0.0704,-0.55618 -0.15057,-1.1042 -0.19843,-1.69287 z"
           id="rect1161-8-3-9-61-0"
           inkscape:connector-curvature="0"
           sodipodi:nodetypes="ccccc" />
        <rect
           style="fill:#ffffff;fill-opacity:1;stroke:none;stroke-width:0.0909091"
           id="rect1159-2-56-8-68-6"
           width="1"
           height="4"
           x="-445.18704"
           y="344.8551" />
        <rect
           style="fill:#ffffff;fill-opacity:1;stroke:none;stroke-width:0.0909091"
           id="rect1159-2-8-2-1-5-0"
           width="1"
           height="4"
           x="-449.33957"
           y="344.8551" />
        <rect
           style="fill:#ffffff;fill-opacity:1;stroke:none;stroke-width:0.0909091"
           id="rect1159-2-5-91-9-87-2"
           width="1"
           height="4"
           x="-453.49207"
           y="344.8551" />
        <rect
           style="fill:#ffffff;fill-opacity:1;stroke:none;stroke-width:0.18181819"
           id="rect1159-0-2-3-6-8"
           width="2"
           height="8"
           x="-462.29709"
           y="340.8551" />
        <rect
           style="fill:#ffffff;fill-opacity:1;stroke:none;stroke-width:0.18181819"
           id="rect1159-4-70-8-1-3"
           width="2"
           height="8"
           x="-420.772"
           y="340.8551" />
        <rect
           style="fill:#ffffff;fill-opacity:1;stroke:none;stroke-width:0.0909091"
           id="rect1159-2-7-9-4-45-2"
           width="1"
           height="4"
           x="-424.42453"
           y="344.8551" />
        <rect
           style="fill:#ffffff;fill-opacity:1;stroke:none;stroke-width:0.0909091"
           id="rect1159-2-8-6-3-5-9-6"
           width="1"
           height="4"
           x="-428.57706"
           y="344.8551" />
        <rect
           style="fill:#ffffff;fill-opacity:1;stroke:none;stroke-width:0.0909091"
           id="rect1159-2-5-2-60-4-9-6"
           width="1"
           height="4"
           x="-432.72952"
           y="344.8551" />
        <rect
           style="fill:#ffffff;fill-opacity:1;stroke:none;stroke-width:0.18181819"
           id="rect1159-7-6-7-0-5"
           width="2"
           height="8"
           x="-400.00949"
           y="340.8551" />
        <rect
           style="fill:#ffffff;fill-opacity:1;stroke:none;stroke-width:0.0909091"
           id="rect1159-2-2-2-5-8-9"
           width="1"
           height="4"
           x="-403.66202"
           y="344.8551" />
        <rect
           style="fill:#ffffff;fill-opacity:1;stroke:none;stroke-width:0.0909091"
           id="rect1159-2-8-3-6-2-82-5"
           width="1"
           height="4"
           x="-407.81451"
           y="344.8551" />
        <rect
           style="fill:#ffffff;fill-opacity:1;stroke:none;stroke-width:0.0909091"
           id="rect1159-2-5-5-1-7-45-9"
           width="1"
           height="4"
           x="-411.96701"
           y="344.8551" />
        <rect
           style="fill:#ffffff;fill-opacity:1;stroke:none;stroke-width:0.0909091"
           id="rect1159-2-5-6-8-0-3-8"
           width="1"
           height="4"
           x="-457.64456"
           y="344.8551" />
        <rect
           style="fill:#ffffff;fill-opacity:1;stroke:none;stroke-width:0.0909091"
           id="rect1159-2-5-25-7-3-2-8"
           width="1"
           height="4"
           x="-436.88205"
           y="344.8551" />
        <rect
           style="fill:#ffffff;fill-opacity:1;stroke:none;stroke-width:0.0909091"
           id="rect1159-2-5-9-9-2-7-4"
           width="1"
           height="4"
           x="-416.11954"
           y="344.8551" />
        <path
           style="fill:#ffffff;fill-opacity:1;stroke:none;stroke-width:0.1337454"
           d="m -430.15332,354.95992 3.0427,6.05198 h -6.08541 z"
           id="rect1349-2-2-89-6"
           inkscape:connector-curvature="0"
           sodipodi:nodetypes="cccc" />
        <path
           style="opacity:1;fill:#5d8d4d;fill-opacity:1;stroke:none;stroke-width:0.25;stroke-linecap:butt;stroke-miterlimit:10;stroke-dasharray:none;stroke-dashoffset:0;stroke-opacity:1"
           d="m -430.17559,314.62233 c 0.32364,-0.32975 1.80592,-0.17266 1.87089,0 0.065,0.17266 -0.42253,3.20325 -0.70159,3.3676 -0.27906,0.16435 -1.59086,0.27407 -1.87089,0 -0.28003,-0.27407 0.37795,-3.03785 0.70159,-3.3676 z"
           id="rect984-3-74-1"
           inkscape:connector-curvature="0"
           sodipodi:nodetypes="zzzzz" />
      </g>
    </g>
    <g
       id="g2794"
       inkscape:export-xdpi="236.4509"
       inkscape:export-ydpi="236.4509">
      <rect
         ry="9.4132042"
         y="42.866322"
         x="-484.70734"
         height="110"
         width="110"
         id="rect2396-7-9"
         style="fill:#ececec;fill-opacity:1;stroke:none;stroke-width:0.25640398" />
      <g
         transform="translate(-138.44561,-127.96865)"
         id="g2650">
        <path
           inkscape:connector-curvature="0"
           id="path35-2-3-9-5-3-7-99-1-6"
           d="m -305.4173,256.45335 c -8.83585,-1.9961 -15.90619,-8.71063 -19.07983,-18.11964 -1.00919,-2.992 -1.54917,-6.57816 -1.94024,-12.88569 -0.43731,-7.05333 -0.0223,-10.40219 1.8526,-14.94885 1.56453,-3.79404 4.68711,-7.43196 7.94811,-9.48721 17.68226,-2.0922 25.06539,-1.16496 33.76516,-1.47296 0.90839,-0.0281 15.7868,0.77123 16.65991,1.28017 5.54246,3.23067 9.14736,9.04914 10.2105,16.48019 0.221,1.54471 -0.10341,5.6515 -0.29772,9.44306 -0.17407,3.39694 -0.18777,6.48492 -0.52997,8.16943 -2.49103,12.26236 -12.08094,21.29099 -23.33876,21.97275 -2.34589,0.14206 -3.99301,-0.0353 -9.19804,-0.99037 -1.54765,-0.284 -2.12923,-0.24452 -5.72144,0.38824 -4.63768,0.81693 -7.27721,0.86062 -10.33028,0.17088 z"
           style="fill:#ee6e73;fill-opacity:1;stroke-width:0.26458332"
           sodipodi:nodetypes="ccscccccccccsc" />
        <path
           inkscape:connector-curvature="0"
           id="path31-1-4-6-9-7-4-4"
           d="m -317.31608,201.69205 c -3.41109,0.26176 3.17772,-2.28599 4.52878,-2.49104 -0.10092,-0.3369 -9.29307,0.95307 -9.56133,0.51694 -0.26864,-0.43675 4.19521,-1.90415 7.514,-1.9662 3.1756,-0.13424 6.06913,-0.25976 9.3967,0.22262 2.21103,0.32051 3.721,0.66887 4.12935,0.61057 0.69507,-0.0992 1.00818,-0.13747 0.58774,-0.4823 -0.3787,-0.33015 -1.88908,-0.5263 -1.97463,-1.04701 -0.0519,-0.31568 3.07052,-0.34402 6.0567,-0.004 2.85371,0.22025 6.78837,0.22265 10.03154,0.0598 2.90165,-0.33722 6.18132,-0.44611 6.18132,-0.13532 0,0.12612 -0.63756,0.69754 -1.37596,1.00441 -0.7384,0.30686 -0.89416,0.36111 -0.81572,0.48804 0.0794,0.12845 0.52215,0.10276 1.8894,-0.0893 7.32254,-1.02889 15.0417,-0.73486 18.91574,0.12888 3.76672,1.15372 1.60822,1.20936 -4.32153,0.74961 -2.19604,-0.10846 -3.02944,-0.17555 -4.4241,0.26404 3.84014,0.37124 6.33873,1.52809 6.00036,1.83038 -0.21984,0.1964 -2.19091,0.35589 -5.27916,-0.0296 -3.59685,-0.4589 -7.90207,-0.77897 -12.73322,-0.9878 -1.3697,-0.0592 2.62929,3.73249 2.08493,10.70636 -0.89187,-3.5957 -9.41911,-10.93188 -10.31592,-10.9576 -1.3295,-0.0381 -8.36829,7.79105 -8.87242,7.73697 0.27154,-1.589 0.32128,-1.78254 0.61039,-3.13809 -1.04152,0.80646 -4.67513,3.5405 -5.82664,5.99504 -1.81751,-5.11107 5.37238,-10.53313 5.37238,-10.53313 0,0 -9.29517,0.32325 -17.7987,1.54739 z"
           style="fill:#a2a64d;stroke-width:0.26458332"
           sodipodi:nodetypes="ccsccccsccsccccccscscscccccc" />
        <rect
           style="fill:#ffffff;fill-opacity:1;stroke:none;stroke-width:0.18181819"
           id="rect1159-75-4-4-8-2"
           width="2"
           height="8"
           x="-302.62741"
           y="221.15976" />
        <path
           style="fill:#803b3d;fill-opacity:1;stroke:none;stroke-width:0.04838879"
           d="m -326.03581,230.46176 h 69.57922 c -0.0126,0.56462 -0.0458,1.12925 -0.0811,1.69387 l -69.29969,-0.001 c -0.0704,-0.55618 -0.15057,-1.1042 -0.19843,-1.69287 z"
           id="rect1161-8-3-9-61-0-1"
           inkscape:connector-curvature="0"
           sodipodi:nodetypes="ccccc" />
        <rect
           style="fill:#ffffff;fill-opacity:1;stroke:none;stroke-width:0.0909091"
           id="rect1159-2-56-8-68-6-4"
           width="1"
           height="4"
           x="-306.27991"
           y="225.15976" />
        <rect
           style="fill:#ffffff;fill-opacity:1;stroke:none;stroke-width:0.0909091"
           id="rect1159-2-8-2-1-5-0-6"
           width="1"
           height="4"
           x="-310.43243"
           y="225.15976" />
        <rect
           style="fill:#ffffff;fill-opacity:1;stroke:none;stroke-width:0.0909091"
           id="rect1159-2-5-91-9-87-2-9"
           width="1"
           height="4"
           x="-314.58493"
           y="225.15976" />
        <rect
           style="fill:#ffffff;fill-opacity:1;stroke:none;stroke-width:0.18181819"
           id="rect1159-0-2-3-6-8-4"
           width="2"
           height="8"
           x="-323.38995"
           y="221.15976" />
        <rect
           style="fill:#ffffff;fill-opacity:1;stroke:none;stroke-width:0.18181819"
           id="rect1159-4-70-8-1-3-9"
           width="2"
           height="8"
           x="-281.86487"
           y="221.15976" />
        <rect
           style="fill:#ffffff;fill-opacity:1;stroke:none;stroke-width:0.0909091"
           id="rect1159-2-7-9-4-45-2-3"
           width="1"
           height="4"
           x="-285.5174"
           y="225.15976" />
        <rect
           style="fill:#ffffff;fill-opacity:1;stroke:none;stroke-width:0.0909091"
           id="rect1159-2-8-6-3-5-9-6-0"
           width="1"
           height="4"
           x="-289.66992"
           y="225.15976" />
        <rect
           style="fill:#ffffff;fill-opacity:1;stroke:none;stroke-width:0.0909091"
           id="rect1159-2-5-2-60-4-9-6-7"
           width="1"
           height="4"
           x="-293.82239"
           y="225.15976" />
        <rect
           style="fill:#ffffff;fill-opacity:1;stroke:none;stroke-width:0.18181819"
           id="rect1159-7-6-7-0-5-7"
           width="2"
           height="8"
           x="-261.10236"
           y="221.15976" />
        <rect
           style="fill:#ffffff;fill-opacity:1;stroke:none;stroke-width:0.0909091"
           id="rect1159-2-2-2-5-8-9-0"
           width="1"
           height="4"
           x="-264.75488"
           y="225.15976" />
        <rect
           style="fill:#ffffff;fill-opacity:1;stroke:none;stroke-width:0.0909091"
           id="rect1159-2-8-3-6-2-82-5-0"
           width="1"
           height="4"
           x="-268.90738"
           y="225.15976" />
        <rect
           style="fill:#ffffff;fill-opacity:1;stroke:none;stroke-width:0.0909091"
           id="rect1159-2-5-5-1-7-45-9-5"
           width="1"
           height="4"
           x="-273.05988"
           y="225.15976" />
        <rect
           style="fill:#ffffff;fill-opacity:1;stroke:none;stroke-width:0.0909091"
           id="rect1159-2-5-6-8-0-3-8-2"
           width="1"
           height="4"
           x="-318.73743"
           y="225.15976" />
        <rect
           style="fill:#ffffff;fill-opacity:1;stroke:none;stroke-width:0.0909091"
           id="rect1159-2-5-25-7-3-2-8-2"
           width="1"
           height="4"
           x="-297.97491"
           y="225.15976" />
        <rect
           style="fill:#ffffff;fill-opacity:1;stroke:none;stroke-width:0.0909091"
           id="rect1159-2-5-9-9-2-7-4-9"
           width="1"
           height="4"
           x="-277.2124"
           y="225.15976" />
        <path
           style="fill:#ffffff;fill-opacity:1;stroke:none;stroke-width:0.1337454"
           d="m -291.2462,235.26456 3.0427,6.05198 h -6.08541 z"
           id="rect1349-2-2-89-6-3"
           inkscape:connector-curvature="0"
           sodipodi:nodetypes="cccc" />
        <path
           style="opacity:1;fill:#5d8d4d;fill-opacity:1;stroke:none;stroke-width:0.25;stroke-linecap:butt;stroke-miterlimit:10;stroke-dasharray:none;stroke-dashoffset:0;stroke-opacity:1"
           d="m -291.26847,194.92697 c 0.32364,-0.32975 1.80592,-0.17266 1.87089,0 0.065,0.17266 -0.42253,3.20325 -0.70159,3.3676 -0.27906,0.16435 -1.59086,0.27407 -1.87089,0 -0.28003,-0.27407 0.37795,-3.03785 0.70159,-3.3676 z"
           id="rect984-3-74-1-2"
           inkscape:connector-curvature="0"
           sodipodi:nodetypes="zzzzz" />
      </g>
    </g>
  </g>
</svg>
